PathFileType	4	(X/Y/Z)	1103211_Jog01.trc	
DataRate	CameraRate	NumFrames	NumMarkers	Units	OrigDataRate	OrigDataStartFrame	OrigNumFrames
300	300	4	69	mm	300	651	258
Frame#	Time	CLAV			STRN			RSHO			LSHO			C7			T10			RBAK			RASI			LASI			RPSI			LPSI			LGTR			RGTR			LHJC			RHJC			LANK			RANK			LHEE			RHEE			LMT5			RMT5			LTOE			RTOE			RELB			RWRA			RWRB			RFIN			LELB			LWRB			LWRA			LFIN			RFP1			RFP2			RFP3			RFM1			RFM2			RFM3			RFA1			RFA2			RFA3			LFP1			LFP2			LFP3			LFM1			LFM2			LFM3			LFA1			LFA2			LFA3			LKNE			RKNE			RTP1			RTP2			RTP3			RTA1			RTA2			RTA3			LTP1			LTP2			LTP3			LTA1			LFHD			LBHD			RFHD			RBHD			LUPA			LFRA			RUPA			RFRA			
		X1	Y1	Z1	X2	Y2	Z2	X3	Y3	Z3	X4	Y4	Z4	X5	Y5	Z5	X6	Y6	Z6	X7	Y7	Z7	X8	Y8	Z8	X9	Y9	Z9	X10	Y10	Z10	X11	Y11	Z11	X12	Y12	Z12	X13	Y13	Z13	X14	Y14	Z14	X15	Y15	Z15	X16	Y16	Z16	X17	Y17	Z17	X18	Y18	Z18	X19	Y19	Z19	X20	Y20	Z20	X21	Y21	Z21	X22	Y22	Z22	X23	Y23	Z23	X24	Y24	Z24	X25	Y25	Z25	X26	Y26	Z26	X27	Y27	Z27	X28	Y28	Z28	X29	Y29	Z29	X30	Y30	Z30	X31	Y31	Z31	X32	Y32	Z32	X33	Y33	Z33	X34	Y34	Z34	X35	Y35	Z35	X36	Y36	Z36	X37	Y37	Z37	X38	Y38	Z38	X39	Y39	Z39	X40	Y40	Z40	X41	Y41	Z41	X42	Y42	Z42	X43	Y43	Z43	X44	Y44	Z44	X45	Y45	Z45	X46	Y46	Z46	X47	Y47	Z47	X48	Y48	Z48	X49	Y49	Z49	X50	Y50	Z50	X51	Y51	Z51	X52	Y52	Z52	X53	Y53	Z53	X54	Y54	Z54	X55	Y55	Z55	X56	Y56	Z56	X57	Y57	Z57	X58	Y58	Z58	X59	Y59	Z59	X60	Y60	Z60	X61	Y61	Z61	X62	Y62	Z62	X63	Y63	Z63	X64	Y64	Z64	X65	Y65	Z65	X66	Y66	Z66	X67	Y67	Z67	X68	Y68	Z68	X69	Y69	Z69	

33	0.10667	509.58826	1342.23950	1.65181	548.24512	1169.61206	-0.48679	405.67102	1381.58215	143.81662	476.61688	1394.31799	-177.66972	373.99744	1407.59766	-27.78801	318.68738	1122.66528	-44.53969	302.42639	1321.86768	49.24446	465.02771	916.90564	73.06643	469.10718	935.03143	-148.97804	288.15747	939.38983	8.30568	291.07300	939.31433	-88.53050	374.73938	845.45026	-210.18452	409.06323	839.49225	125.10236	392.79407	856.69067	-125.08379	386.42908	843.97583	33.26518	-66.29480	309.21808	-172.93666	546.83691	87.70762	19.88635	-92.57642	366.53494	-109.24059	484.09375	54.56936	-30.45155	-118.31226	196.27618	-210.68755	663.45477	62.61923	61.12032	-69.22058	148.20474	-156.24144	702.73279	101.99940	-2.84932	186.02722	1199.63477	242.80334	321.78650	1000.35968	191.07558	277.58923	966.19116	239.96944	374.41248	951.90265	226.09572	386.19971	1154.70313	-343.46497	569.42413	1072.15552	-193.32716	547.71356	1134.64453	-169.53926	628.28210	1135.72229	-148.67470	436.44421	745.96619	125.91388	476.14539	660.51056	112.92956	509.99591	577.26099	89.99914	477.73730	818.28271	115.14474	521.65045	735.65363	109.16011	559.19220	653.40253	89.82948	530.44122	800.66010	59.90181	569.80823	712.83142	48.28444	590.09430	628.66876	27.85696	350.17578	746.17133	-215.17854	329.45593	637.68530	-203.31322	312.71765	562.70685	-190.38155	421.06738	792.06561	-203.16109	401.13818	687.83539	-199.66499	386.24768	597.54718	-190.13719	467.89978	732.74164	-157.36656	454.37604	630.46210	-142.58974	423.66577	541.37329	-133.08513	281.52161	481.22437	-181.03712	540.08362	478.54907	68.25926	534.65820	366.70966	75.65374	531.47351	263.01334	57.18358	536.28076	179.77657	35.24699	590.41522	404.58755	12.13837	587.72510	324.07593	0.94550	582.80450	240.21700	-8.90079	177.42566	423.88538	-197.86165	106.16541	390.37582	-191.19475	30.60095	351.56534	-182.41115	251.84973	388.37585	-137.19313	519.62964	1603.89038	-79.19066	405.05627	1587.26099	-101.58482	507.33740	1598.74622	67.32343	368.66870	1584.56787	60.61434	464.27979	1303.77478	-263.54663	507.62823	1101.71802	-263.91577	246.01392	1262.55920	223.11301	212.28662	1109.81482	259.68817	
34	0.11000	518.61603	1339.60132	1.90979	557.07373	1166.96472	-0.49669	415.00513	1378.72705	144.67517	484.91693	1391.86047	-177.41243	382.77930	1405.07166	-26.94853	327.42700	1120.02722	-44.08653	311.30432	1319.13586	50.36159	473.63556	915.33124	73.28972	477.36108	931.71002	-149.04402	296.55432	936.20026	8.54443	299.39490	935.94617	-88.37282	383.73914	841.93689	-209.86098	417.94531	837.21759	125.40851	401.43701	853.20837	-124.35460	395.32520	841.73114	34.09886	-54.66150	311.51843	-173.53435	548.73663	86.76741	19.22972	-80.29150	368.92300	-109.65144	485.33655	54.78902	-30.97377	-108.03064	199.48254	-212.02946	664.97491	59.74069	60.63803	-59.77966	150.46849	-157.65559	705.15149	97.69263	-3.66270	196.64246	1195.16565	244.32777	332.62769	996.20142	192.00128	288.74792	962.00647	241.15561	385.49390	947.89435	226.89769	393.17310	1152.72510	-342.87256	576.41119	1066.37292	-194.88326	555.61932	1128.75452	-170.09712	636.32544	1128.38696	-149.67784	445.38135	743.69293	125.97064	484.98761	658.35944	112.75644	518.88312	575.18976	89.87778	486.55103	816.02881	115.26959	530.50793	733.47015	109.35462	568.13580	651.29242	90.03432	539.59845	798.59961	60.31059	579.03986	710.80829	48.69264	599.25330	626.62250	28.09421	360.36230	742.50531	-214.99428	340.99658	633.87256	-203.28798	325.18042	558.71106	-190.49312	430.63635	789.16510	-202.78581	412.03479	684.82941	-199.59135	398.28711	594.36414	-190.28093	478.20026	730.45715	-157.12865	465.90698	628.09998	-142.57289	436.33228	538.67834	-133.23109	295.08765	477.50305	-181.51720	548.97620	476.56836	68.24584	542.35541	364.87833	75.39463	537.48322	261.36371	56.74377	540.68274	178.17955	34.66754	598.44922	402.12332	11.75511	594.34607	321.57547	0.36215	587.97754	237.88362	-9.58563	190.77307	421.81335	-198.29640	119.02869	389.46622	-191.64046	42.81653	352.02429	-182.92186	264.77087	385.31323	-137.60063	528.57074	1601.55920	-78.70451	413.96411	1584.92749	-100.95265	516.37091	1596.43237	67.81403	377.66736	1582.23523	61.23796	471.88995	1301.28003	-263.06140	514.60486	1097.51904	-264.64728	256.19434	1258.25818	224.36739	223.17078	1105.33521	261.08099	
35	0.11333	527.65576	1336.95081	2.15144	565.88831	1164.29993	-0.53278	424.36536	1375.84167	145.54510	493.17670	1389.39819	-177.17775	391.56287	1402.54150	-26.09789	336.14075	1117.39685	-43.65266	320.18042	1316.39880	51.48822	482.16638	913.76819	73.49480	485.58160	928.31909	-149.09969	304.89746	933.03827	8.74814	307.67444	932.58838	-88.23930	392.74768	838.40436	-209.53749	426.75549	834.95636	125.72792	410.02356	849.69470	-123.60854	404.13354	839.51123	34.94173	-42.74292	313.70605	-174.12117	550.45837	85.94443	18.63126	-67.76843	371.20822	-110.08339	486.41968	55.06392	-31.42728	-97.39246	202.53969	-213.32060	666.31909	57.06818	60.22194	-49.98669	152.63705	-158.98891	707.35577	93.58965	-4.41583	207.36157	1190.57776	245.88599	343.56311	991.93610	192.92928	300.01990	957.71960	242.35574	396.67554	943.78192	227.69467	400.09741	1150.70337	-342.24323	583.30713	1060.46692	-196.52586	563.46411	1122.71130	-170.72234	644.28430	1120.85828	-150.80742	454.24310	741.42450	126.06526	493.77289	656.20526	112.64466	527.72504	573.10895	89.82339	495.29468	813.77161	115.43909	539.30859	731.26929	109.60674	577.02094	649.16754	90.27323	548.66431	796.49512	60.74448	588.16998	708.75330	49.12474	608.32874	624.56268	28.35985	370.58655	738.83215	-214.80324	352.61206	630.07385	-203.25655	337.73560	554.74023	-190.59782	440.21692	786.25537	-202.39500	422.98071	681.83472	-199.51112	410.39917	591.20917	-190.41280	488.51434	728.17773	-156.86427	477.46503	625.77161	-142.51698	449.05194	536.03857	-133.33128	308.75769	473.80252	-181.98653	557.86499	474.63181	68.27866	550.02588	363.13385	75.20014	543.42889	259.82788	56.38593	544.97687	176.72415	34.17696	606.41138	399.72443	11.39178	600.87109	319.17221	-0.17488	593.02094	235.65880	-10.21455	204.28857	419.69656	-198.72218	132.09778	388.48111	-192.08995	55.27649	352.39023	-183.42857	277.84790	382.28638	-137.96486	537.50616	1599.23572	-78.23354	422.86560	1582.59094	-100.32677	525.40985	1594.13098	68.29216	386.67017	1579.90613	61.85956	479.43243	1298.75220	-262.58807	521.50934	1093.22766	-265.41791	266.45459	1253.84717	225.64745	234.16968	1100.73560	262.49811	
36	0.11667	536.70697	1334.29834	2.37653	574.68719	1161.62842	-0.59529	433.75305	1372.93579	146.42490	501.40082	1386.94177	-176.96468	400.34961	1400.02136	-25.23701	344.82544	1114.78857	-43.23824	329.05530	1313.66919	52.62193	490.61639	912.21521	73.67965	493.77063	924.87555	-149.14104	313.18506	929.91827	8.91331	315.91150	929.25739	-88.13228	401.76636	834.86969	-209.21599	435.48657	832.71973	126.05896	418.55115	846.16791	-122.85152	412.84741	837.32153	35.78578	-30.54321	315.77548	-174.69624	552.01227	85.23695	18.09190	-55.01794	373.38654	-110.53896	487.35748	55.38615	-31.81541	-86.39307	205.43486	-214.55864	667.49835	54.61595	59.87112	-39.83289	154.70306	-160.23592	709.35010	89.71893	-5.10533	218.18652	1185.88220	247.47647	354.59680	987.57758	193.85451	311.41101	953.34326	243.56506	407.96252	939.58026	228.48003	406.97351	1148.64856	-341.57642	590.10699	1054.45129	-198.25423	571.24390	1116.52783	-171.41704	652.15186	1113.14856	-152.06654	463.02698	739.17395	126.19803	502.50293	654.06329	112.59571	536.52222	571.03394	89.83971	503.96265	811.52502	115.65556	548.05096	729.06958	109.91795	585.84808	647.04590	90.55013	557.62622	794.36328	61.19988	597.19635	706.68665	49.58179	617.32086	622.50800	28.65771	380.84814	735.16821	-214.60307	364.30383	626.30664	-203.21669	350.38477	550.81244	-190.69432	449.80878	783.35144	-201.98936	433.97620	678.86768	-199.42223	422.58496	588.09900	-190.52870	498.83984	725.91785	-156.57088	489.04779	623.49249	-142.41634	461.82300	533.46991	-133.38033	322.53235	470.13840	-182.43983	566.74786	472.74930	68.36000	557.66016	361.48322	75.07417	549.30328	258.41278	56.11487	549.15930	175.41890	33.78003	614.29346	397.39886	11.05638	607.29620	316.87543	-0.65788	597.93311	233.55206	-10.78091	217.97046	417.54550	-199.13533	145.37000	387.42776	-192.54164	67.97778	352.66562	-183.92888	291.08118	379.30716	-138.28065	546.43518	1596.93018	-77.77779	431.76001	1580.25977	-99.70781	534.45367	1591.85254	68.75758	395.67737	1577.58972	62.47926	486.90955	1296.20447	-262.12756	528.33911	1088.85474	-266.22675	276.79590	1249.33923	226.95189	245.28796	1096.02759	263.93622	
